<svg width="84" height="84" viewBox="0 0 84 84" fill="none" xmlns="http://www.w3.org/2000/svg">
<mask id="mask0_7_62" style="mask-type:alpha" maskUnits="userSpaceOnUse" x="-3" y="-3" width="90" height="90">
<circle cx="42" cy="42" r="45" fill="white"/>
</mask>
<g mask="url(#mask0_7_62)">
</g>
<path d="M42.161 70.9042C58.2771 70.9042 71.3417 57.8396 71.3417 41.7235C71.3417 25.6075 58.2771 12.5428 42.161 12.5428C26.045 12.5428 12.9803 25.6075 12.9803 41.7235C12.9803 57.8396 26.045 70.9042 42.161 70.9042Z" fill="#5C9E31"/>
<path d="M43.5342 30.7207L46.2969 28.1668C47.6456 26.9208 49.8237 27.9697 49.6896 29.8002L49.4166 33.5533C49.3796 34.0611 49.5354 34.5642 49.8528 34.9623C50.1702 35.3603 50.626 35.6242 51.1292 35.7012L54.8486 36.2693C56.6639 36.547 57.2017 38.9037 55.6862 39.9408L52.5829 42.0665C52.1627 42.3542 51.8665 42.7897 51.7532 43.2862C51.6399 43.7827 51.7178 44.3036 51.9716 44.7452L53.8452 48.006C54.7599 49.5985 53.2526 51.4885 51.4967 50.9507L47.9011 49.8493C47.4139 49.6998 46.8884 49.7396 46.4292 49.9606C45.9701 50.1816 45.6112 50.5677 45.4242 51.0417L44.0429 54.5405C43.3686 56.2485 40.9512 56.2485 40.2769 54.5405L38.8956 51.0405C38.7084 50.567 38.3496 50.1814 37.8908 49.9606C37.4319 49.7398 36.9067 49.7001 36.4199 49.8493L32.8231 50.9507C31.0672 51.4885 29.5611 49.5985 30.4757 48.006L32.3494 44.7452C32.6031 44.3036 32.6811 43.7827 32.5678 43.2862C32.4545 42.7897 32.1582 42.3542 31.7381 42.0665L28.6347 39.9408C27.1192 38.9025 27.6571 36.5458 29.4724 36.2693L33.1906 35.7012C33.6941 35.6244 34.1501 35.3607 34.4678 34.9626C34.7854 34.5645 34.9413 34.0613 34.9044 33.5533L34.6302 29.8013C34.4972 27.9697 36.6754 26.9208 38.0241 28.168L40.7867 30.7207C41.5626 31.437 42.7584 31.437 43.5342 30.7207Z" fill="#B1CC33"/>
<path d="M42.161 70.9042C58.2771 70.9042 71.3417 57.8396 71.3417 41.7235C71.3417 25.6075 58.2771 12.5428 42.161 12.5428C26.045 12.5428 12.9803 25.6075 12.9803 41.7235C12.9803 57.8396 26.045 70.9042 42.161 70.9042Z" stroke="black" stroke-width="0.5" stroke-miterlimit="10" stroke-linecap="round" stroke-linejoin="round"/>
<path d="M43.5342 30.7207L46.2969 28.1668C47.6456 26.9208 49.8237 27.9697 49.6896 29.8002L49.4166 33.5533C49.3796 34.0611 49.5354 34.5642 49.8528 34.9623C50.1702 35.3603 50.626 35.6242 51.1292 35.7012L54.8486 36.2693C56.6639 36.547 57.2017 38.9037 55.6862 39.9408L52.5829 42.0665C52.1627 42.3542 51.8665 42.7897 51.7532 43.2862C51.6399 43.7827 51.7178 44.3036 51.9716 44.7452L53.8452 48.006C54.7599 49.5985 53.2526 51.4885 51.4967 50.9507L47.9011 49.8493C47.4139 49.6998 46.8884 49.7396 46.4292 49.9606C45.9701 50.1816 45.6112 50.5677 45.4242 51.0417L44.0429 54.5405C43.3686 56.2485 40.9512 56.2485 40.2769 54.5405L38.8956 51.0405C38.7084 50.567 38.3496 50.1814 37.8908 49.9606C37.4319 49.7398 36.9067 49.7001 36.4199 49.8493L32.8231 50.9507C31.0672 51.4885 29.5611 49.5985 30.4757 48.006L32.3494 44.7452C32.6031 44.3036 32.6811 43.7827 32.5678 43.2862C32.4545 42.7897 32.1582 42.3542 31.7381 42.0665L28.6347 39.9408C27.1192 38.9025 27.6571 36.5458 29.4724 36.2693L33.1906 35.7012C33.6941 35.6244 34.1501 35.3607 34.4678 34.9626C34.7854 34.5645 34.9413 34.0613 34.9044 33.5533L34.6302 29.8013C34.4972 27.9697 36.6754 26.9208 38.0241 28.168L40.7867 30.7207C41.5626 31.437 42.7584 31.437 43.5342 30.7207Z" stroke="black" stroke-width="0.5" stroke-miterlimit="10" stroke-linecap="round" stroke-linejoin="round"/>
<path d="M29.8176 30.7339C30.2084 30.2934 29.8115 29.3029 28.931 28.5216C28.0504 27.7403 27.0197 27.464 26.6289 27.9045C26.238 28.345 26.635 29.3355 27.5155 30.1168C28.396 30.8981 29.4267 31.1744 29.8176 30.7339Z" fill="black"/>
<path d="M42.0455 24.3589C42.6344 24.3589 43.1118 23.4046 43.1118 22.2274C43.1118 21.0502 42.6344 20.0959 42.0455 20.0959C41.4565 20.0959 40.9791 21.0502 40.9791 22.2274C40.9791 23.4046 41.4565 24.3589 42.0455 24.3589Z" fill="black"/>
<path d="M56.8344 30.2006C57.6668 29.3682 58.004 28.3558 57.5876 27.9394C57.1711 27.523 56.1588 27.8602 55.3264 28.6926C54.494 29.5251 54.1568 30.5374 54.5732 30.9539C54.9897 31.3703 56.002 31.033 56.8344 30.2006Z" fill="black"/>
<path d="M61.3973 44.692C61.4626 44.1067 60.5672 43.5264 59.3972 43.3959C58.2273 43.2653 57.2259 43.634 57.1606 44.2193C57.0953 44.8046 57.9908 45.3849 59.1607 45.5154C60.3306 45.6459 61.332 45.2773 61.3973 44.692Z" fill="black"/>
<path d="M25.0519 45.388C26.2291 45.388 27.1834 44.9106 27.1834 44.3217C27.1834 43.7328 26.2291 43.2553 25.0519 43.2553C23.8747 43.2553 22.9204 43.7328 22.9204 44.3217C22.9204 44.9106 23.8747 45.388 25.0519 45.388Z" fill="black"/>
<path d="M35.1976 57.3566C35.7862 56.3371 35.8499 55.272 35.3399 54.9775C34.8299 54.683 33.9393 55.2708 33.3507 56.2903C32.7621 57.3097 32.6984 58.3749 33.2084 58.6694C33.7184 58.9638 34.609 58.3761 35.1976 57.3566Z" fill="black"/>
<path d="M51.2314 58.7385C51.7508 58.4609 51.7222 57.3943 51.1675 56.356C50.6127 55.3177 49.7419 54.701 49.2225 54.9785C48.7031 55.256 48.7317 56.3227 49.2864 57.361C49.8412 58.3993 50.712 59.016 51.2314 58.7385Z" fill="black"/>
</svg>
